<?xml version="1.0" encoding="UTF-8" standalone="no"?>
<svg
   xmlns:dc="http://purl.org/dc/elements/1.1/"
   xmlns:cc="http://creativecommons.org/ns#"
   xmlns:rdf="http://www.w3.org/1999/02/22-rdf-syntax-ns#"
   xmlns:svg="http://www.w3.org/2000/svg"
   xmlns="http://www.w3.org/2000/svg"
   xmlns:sodipodi="http://sodipodi.sourceforge.net/DTD/sodipodi-0.dtd"
   xmlns:inkscape="http://www.inkscape.org/namespaces/inkscape"
   inkscape:version="1.0 (4035a4f, 2020-05-01)"
   sodipodi:docname="spot-on.svg"
   viewBox="0 0 448.80945 859.65103"
   height="859.65106"
   width="448.80945"
   xml:space="preserve"
   id="svg833"
   version="1.1"><metadata
     id="metadata839"><rdf:RDF><cc:Work
         rdf:about=""><dc:format>image/svg+xml</dc:format><dc:type
           rdf:resource="http://purl.org/dc/dcmitype/StillImage" /><dc:title></dc:title></cc:Work></rdf:RDF></metadata><defs
     id="defs837" /><sodipodi:namedview
     fit-margin-bottom="0"
     fit-margin-right="0"
     fit-margin-left="0"
     fit-margin-top="0"
     inkscape:current-layer="g841"
     inkscape:window-maximized="0"
     inkscape:window-y="25"
     inkscape:window-x="0"
     inkscape:cy="565.15242"
     inkscape:cx="321.1475"
     inkscape:zoom="0.55048364"
     showgrid="false"
     id="namedview835"
     inkscape:window-height="770"
     inkscape:window-width="1247"
     inkscape:pageshadow="2"
     inkscape:pageopacity="0"
     guidetolerance="10"
     gridtolerance="10"
     objecttolerance="10"
     borderopacity="1"
     bordercolor="#666666"
     pagecolor="#ffffff" /><g
     transform="matrix(1.3333333,0,0,-1.3333333,-8.0200028,1100.1365)"
     inkscape:label="ink_ext_XXXXXX"
     inkscape:groupmode="layer"
     id="g841"><path
       d="m 336.79538,692.39556 c -15.969,-55.039 -73.531,-86.711 -128.57,-70.742 -55.039,15.972 -86.711,73.535 -70.743,128.57 15.973,55.039 73.536,86.711 128.575,70.742 55.035,-15.973 86.707,-73.535 70.738,-128.57"
       style="fill:#843df5;fill-opacity:1;fill-rule:nonzero;stroke:none;stroke-width:0.1"
       id="path857" /><path
       d="m 209.95138,255.23956 c -15.969,-55.036 -73.531,-86.707 -128.569996,-70.739 -55.039,15.969 -86.7068004,73.532 -70.738,128.571 15.968,55.039 73.531,86.711 128.569996,70.738 55.039,-15.969 86.707,-73.531 70.738,-128.57"
       style="fill:#843df5;fill-opacity:1;fill-rule:nonzero;stroke:none;stroke-width:0.1"
       id="path859" /><path
       d="m 273.37338,473.81756 c -15.969,-55.039 -73.531,-86.711 -128.57,-70.739 -55.038996,15.969 -86.710996,73.532 -70.738996,128.571 15.969,55.035 73.531996,86.707 128.570996,70.738 55.035,-15.969 86.707,-73.531 70.738,-128.57"
       style="fill:#1db954;fill-opacity:1;fill-rule:nonzero;stroke:none;stroke-width:0.1"
       id="path861" /><path
       d="m 133.50638,633.25056 c -10.004,-34.492 -46.077996,-54.34 -80.569996,-44.332 -34.489,10.008 -54.3360004,46.082 -44.3290004,80.571 10.0080004,34.492 46.0790004,54.339 80.5710004,44.332 34.491996,-10.008 54.335996,-46.082 44.327996,-80.571"
       style="fill:#ffc933;fill-opacity:1;fill-rule:nonzero;stroke:none;stroke-width:0.1"
       id="path863" /><path
       d="m 340.02938,336.63756 c -10.008,-34.492 -46.082,-54.34 -80.57,-44.332 -34.492,10.008 -54.34,46.082 -44.332,80.57 10.008,34.492 46.082,54.34 80.57,44.332 34.492,-10.008 54.34,-46.082 44.332,-80.57"
       style="fill:#129ae2;fill-opacity:1;fill-rule:nonzero;stroke:none;stroke-width:0.1"
       id="path865" /></g></svg>
